<svg width="642" height="152" viewBox="0 0 642 152" fill="none" xmlns="http://www.w3.org/2000/svg">
<path d="M25.7793 126.64V76.1356H104.678L118.334 126.64H25.7793ZM152.148 152L123.319 50.7752H25.7793C25.7793 25.6316 25.7793 50.7752 25.7793 25.6316H152.148V0.271155H0.418887V152H152.148ZM211.549 76.1356L226.288 25.6316H288.714V76.1356H211.549ZM208.081 0.271155L162.129 152H188.573L203.312 101.496H288.714V152H314.074V0.271155H208.081ZM402.082 74.6183L344.208 0.271155H324.917V152H350.277V52.0757L402.082 113.634L453.887 52.0757V152H479.247V0.271155H459.956L402.082 74.6183ZM641.753 25.6316V0.271155H490.024V152H641.753V126.64H515.384V25.6316H641.753Z" fill="#FBF0AC"/>
</svg>
