<?xml version="1.0" encoding="utf-8"?>
<!-- Generator: Adobe Illustrator 25.3.1, SVG Export Plug-In . SVG Version: 6.00 Build 0)  -->
<svg version="1.1" id="Layer_1" xmlns="http://www.w3.org/2000/svg" xmlns:xlink="http://www.w3.org/1999/xlink" x="0px" y="0px"
	 viewBox="0 0 399 589" style="enable-background:new 0 0 399 589;" xml:space="preserve">
<style type="text/css">
	.st0{fill:#6E6D71;}
	.st1{fill:#EFEFEF;}
</style>
<path class="st0" d="M372.4,224.4v-28h-26.6v-28h-26.6v-28.1H266V0H133v140.2H79.8v28.1H53.2v28H26.6v28H0v28h26.6v28.1h26.6v28
	h26.6v28h26.6v28.1H133V589h53.2V364.6h26.6V589H266V364.6h26.6v-28.1h26.6v-28h26.6v-28h26.6v-28.1H399v-28H372.4z M106.4,280.5
	H79.8v-28.1H53.2v-28h26.6v-28h26.6V280.5z M186.2,84.1h-26.6v-28h26.6V84.1z M239.4,84.1h-26.6v-28h26.6V84.1z M345.8,252.4h-26.6
	v28.1h-26.6v-84.1h26.6v28h26.6V252.4z"/>
<rect x="212.8" y="56.1" class="st1" width="26.6" height="28"/>
<rect x="159.6" y="56.1" class="st1" width="26.6" height="28"/>
</svg>
