<svg width="515" height="363" viewBox="0 0 515 363" fill="none" xmlns="http://www.w3.org/2000/svg">
<path d="M166.68 182.788L179.505 212.812L148.281 226.15L127.135 199.681L116.67 204.151L145.019 239.411L183.793 222.848L192.33 242.835L202.367 238.548L176.717 178.501L166.68 182.788ZM181.036 176.656L206.686 236.703L216.723 232.416L195.36 182.405L235.334 165.33L256.697 215.34L266.733 211.053L241.083 151.006L181.036 176.656ZM245.372 149.174L271.022 209.221L331.069 183.571L305.419 123.524L245.372 149.174ZM259.696 154.923L299.67 137.847L316.746 177.821L276.771 194.897L259.696 154.923ZM369.513 124.445L366.581 97.3971L356.288 101.794L358.992 124.273L328.283 137.391L319.745 117.404L309.708 121.691L335.358 181.738L345.395 177.451L332.57 147.428L363.451 134.236L385.626 160.266L395.92 155.869L369.513 124.445Z" fill="#FBF0AC"/>
<line x1="98.9388" y1="209" x2="0.938774" y2="208" stroke="#FBF0AC" stroke-width="12"/>
<line x1="115.03" y1="238.415" x2="26.5818" y2="280.628" stroke="#FBF0AC" stroke-width="12"/>
<line x1="131.939" y1="278.429" x2="75.9211" y2="358.847" stroke="#FBF0AC" stroke-width="12"/>
<line x1="416.382" y1="153.165" x2="514.261" y2="158.136" stroke="#FBF0AC" stroke-width="12"/>
<line x1="401.489" y1="123.121" x2="491.575" y2="84.5279" stroke="#FBF0AC" stroke-width="12"/>
<line x1="386.22" y1="82.4547" x2="445.451" y2="4.37373" stroke="#FBF0AC" stroke-width="12"/>
</svg>
