<?xml version="1.0" encoding="utf-8"?>
<!-- Generator: Adobe Illustrator 25.3.1, SVG Export Plug-In . SVG Version: 6.00 Build 0)  -->
<svg version="1.1" id="Layer_1" xmlns="http://www.w3.org/2000/svg" xmlns:xlink="http://www.w3.org/1999/xlink" x="0px" y="0px"
	 viewBox="0 0 399 449" style="enable-background:new 0 0 399 449;" xml:space="preserve">
<style type="text/css">
	.st0{fill:#993626;}
</style>
<path class="st0" d="M372.4,84.4v-28h-26.6v-28h-26.6v-28H79.8v28H53.2v28H26.6v28H0v28h26.6v28h26.6v28h26.6v28.1h26.6v28H133V449
	h53.2V224.6h26.6V449H266V224.6h26.6v-28h26.6v-28.1h26.6v-28h26.6v-28H399v-28H372.4z M106.4,140.5H79.8v-28H53.2v-28h26.6v-28
	h26.6V140.5z M319.2,112.4v28h-26.6V56.3h26.6v28h26.6v28H319.2z"/>
</svg>
