<?xml version="1.0" encoding="utf-8"?>
<!-- Generator: Adobe Illustrator 25.4.1, SVG Export Plug-In . SVG Version: 6.00 Build 0)  -->
<svg version="1.1" id="Слой_1" xmlns="http://www.w3.org/2000/svg" xmlns:xlink="http://www.w3.org/1999/xlink" x="0px" y="0px"
	 viewBox="0 0 258 188" style="enable-background:new 0 0 258 188;" xml:space="preserve">
<style type="text/css">
	.st0{fill:none;}
	.st1{fill:#6E6D71;}
</style>
<rect x="77.7" y="-23.7" transform="matrix(0.3946 -0.9188 0.9188 0.3946 -7.8479 175.4252)" class="st0" width="103" height="234.8"/>
<g>
	<polygon class="st1" points="257.4,92.7 249.3,111.6 241.2,130.5 233,149.5 224.9,168.4 216.8,187.3 198.8,179.6 180.8,171.9 
		162.8,164.2 144.8,156.4 126.9,148.7 135,129.8 153,137.5 161.1,118.6 179.1,126.3 187.2,107.4 205.2,115.1 213.3,96.2 
		231.3,103.9 239.4,84.9 	"/>
	<g>
		<polygon class="st1" points="99,114.3 90.9,133.3 72.9,125.6 54.9,117.8 37,110.1 19,102.4 1,94.7 9.1,75.7 17.3,56.8 25.4,37.9 
			33.5,18.9 41.7,0 59.6,7.7 51.5,26.7 69.5,34.4 61.3,53.3 79.3,61 71.2,80 89.2,87.7 81,106.6 		"/>
	</g>
</g>
</svg>
