<?xml version="1.0" encoding="utf-8"?>
<!-- Generator: Adobe Illustrator 25.3.1, SVG Export Plug-In . SVG Version: 6.00 Build 0)  -->
<svg version="1.1" id="Layer_1" xmlns="http://www.w3.org/2000/svg" xmlns:xlink="http://www.w3.org/1999/xlink" x="0px" y="0px"
	 viewBox="0 0 1334 1011" style="enable-background:new 0 0 1334 1011;" xml:space="preserve">
<style type="text/css">
	.st0{fill:#FBF0AC;}
	.st1{fill:#6E6D71;}
</style>
<polygon class="st0" points="1334,293.5 1334,260.9 1147.9,260.9 1147.9,228.3 1023.8,228.3 1023.8,195.7 961.7,195.7 961.7,163.1 
	930.7,163.1 930.7,130.4 837.6,130.4 837.6,97.8 651.5,97.8 651.5,65.2 496.4,65.2 496.4,32.6 217.2,32.6 217.2,65.2 372.3,65.2 
	372.3,97.8 465.4,97.8 465.4,195.7 403.3,195.7 403.3,228.3 279.2,228.3 279.2,260.9 218.2,260.9 217.2,260.9 94.1,260.9 
	94.1,293.5 217.2,293.5 217.2,326.1 310.2,326.1 310.2,358.7 341.2,358.7 341.2,391.3 372.3,391.3 372.3,489.2 341.2,489.2 
	341.2,521.8 248.2,521.8 248.2,554.4 218.2,554.4 217.2,554.4 125.1,554.4 125.1,587 94.1,587 94.1,619.7 217.2,619.7 218.2,619.7 
	248.2,619.7 248.2,652.3 403.3,652.3 403.3,684.9 465.4,684.9 465.4,782.7 403.3,782.7 403.3,815.3 310.2,815.3 310.2,847.9 
	248.2,847.9 248.2,880.6 372.3,880.6 372.3,913.2 527.4,913.2 527.4,945.8 899.7,945.8 899.7,978.4 1334,978.4 1334,945.8 
	930.7,945.8 930.7,913.2 558.4,913.2 558.4,880.6 403.3,880.6 403.3,847.9 434.3,847.9 434.3,815.3 496.4,815.3 496.4,652.3 
	434.3,652.3 434.3,619.7 279.2,619.7 279.2,554.4 372.3,554.4 372.3,521.8 403.3,521.8 403.3,358.7 372.3,358.7 372.3,326.1 
	341.2,326.1 341.2,293.5 310.2,293.5 310.2,260.9 434.3,260.9 434.3,228.3 496.4,228.3 496.4,97.8 620.5,97.8 620.5,130.4 
	806.6,130.4 806.6,163.1 899.7,163.1 899.7,195.7 930.7,195.7 930.7,228.3 992.8,228.3 992.8,260.9 1116.8,260.9 1116.8,293.5 "/>
<g>
	<polygon class="st1" points="1303,228.3 1272,228.3 1240.9,228.3 1209.9,228.3 1178.9,228.3 1178.9,195.7 1147.9,195.7 
		1116.8,195.7 1085.8,195.7 1054.8,195.7 1054.8,195.7 1054.8,163.1 1023.8,163.1 992.8,163.1 992.8,130.4 961.7,130.4 961.7,97.8 
		930.7,97.8 899.7,97.8 868.7,97.8 868.7,65.2 837.6,65.2 806.6,65.2 775.6,65.2 744.6,65.2 713.5,65.2 682.5,65.2 682.5,32.6 
		651.5,32.6 620.5,32.6 589.5,32.6 558.4,32.6 527.4,32.6 527.4,0 496.4,0 465.4,0 434.3,0 403.3,0 372.3,0 341.2,0 310.2,0 
		279.2,0 248.2,0 217.2,0 217.2,32.6 248.2,32.6 279.2,32.6 310.2,32.6 341.2,32.6 372.3,32.6 403.3,32.6 434.3,32.6 465.4,32.6 
		496.4,32.6 496.4,65.2 527.4,65.2 558.4,65.2 589.5,65.2 620.5,65.2 651.5,65.2 651.5,97.8 682.5,97.8 713.5,97.8 744.6,97.8 
		775.6,97.8 806.6,97.8 837.6,97.8 837.6,130.4 868.7,130.4 899.7,130.4 930.7,130.4 930.7,163.1 961.7,163.1 961.7,195.7 
		992.8,195.7 1023.8,195.7 1023.8,228.3 1054.8,228.3 1085.8,228.3 1116.8,228.3 1147.9,228.3 1147.9,260.9 1178.9,260.9 
		1209.9,260.9 1240.9,260.9 1272,260.9 1303,260.9 1334,260.9 1334,228.3 	"/>
	<polygon class="st1" points="1272,978.4 1240.9,978.4 1209.9,978.4 1178.9,978.4 1147.9,978.4 1116.8,978.4 1085.8,978.4 
		1054.8,978.4 1023.8,978.4 992.8,978.4 961.7,978.4 930.7,978.4 899.7,978.4 899.7,945.8 868.7,945.8 837.6,945.8 806.6,945.8 
		775.6,945.8 744.6,945.8 713.5,945.8 682.5,945.8 651.5,945.8 620.5,945.8 589.5,945.8 558.4,945.8 527.4,945.8 527.4,913.2 
		496.4,913.2 465.4,913.2 434.3,913.2 403.3,913.2 372.3,913.2 372.3,880.6 341.2,880.6 310.2,880.6 279.2,880.6 248.2,880.6 
		248.2,847.9 279.2,847.9 310.2,847.9 310.2,815.3 341.2,815.3 372.3,815.3 403.3,815.3 403.3,782.7 434.3,782.7 465.4,782.7 
		465.4,750.1 465.4,717.5 465.4,684.9 434.3,684.9 403.3,684.9 403.3,652.3 372.3,652.3 341.2,652.3 310.2,652.3 279.2,652.3 
		248.2,652.3 248.2,619.7 217.2,619.7 217.2,652.3 217.2,684.9 248.2,684.9 279.2,684.9 310.2,684.9 341.2,684.9 372.3,684.9 
		372.3,717.5 403.3,717.5 434.3,717.5 434.3,750.1 403.3,750.1 372.3,750.1 372.3,782.7 341.2,782.7 310.2,782.7 279.2,782.7 
		279.2,815.3 248.2,815.3 217.2,815.3 217.2,847.9 217.2,880.6 217.2,913.2 248.2,913.2 279.2,913.2 310.2,913.2 341.2,913.2 
		341.2,945.8 372.3,945.8 403.3,945.8 434.3,945.8 465.4,945.8 496.4,945.8 496.4,978.4 527.4,978.4 558.4,978.4 589.5,978.4 
		620.5,978.4 651.5,978.4 682.5,978.4 713.5,978.4 744.6,978.4 775.6,978.4 806.6,978.4 837.6,978.4 868.7,978.4 868.7,1011 
		899.7,1011 930.7,1011 961.7,1011 992.8,1011 1023.8,1011 1054.8,1011 1085.8,1011 1116.8,1011 1147.9,1011 1178.9,1011 
		1209.9,1011 1240.9,1011 1272,1011 1303,1011 1334,1011 1334,978.4 1303,978.4 	"/>
	<polygon class="st1" points="1272,293.5 1240.9,293.5 1209.9,293.5 1178.9,293.5 1147.9,293.5 1116.8,293.5 1116.8,326.1 
		1116.8,326.1 1116.8,293.5 1116.8,293.5 1116.8,260.9 1085.8,260.9 1054.8,260.9 1023.8,260.9 992.8,260.9 992.8,228.3 
		961.7,228.3 930.7,228.3 930.7,195.7 899.7,195.7 899.7,163.1 868.7,163.1 837.6,163.1 806.6,163.1 806.6,130.4 775.6,130.4 
		744.6,130.4 713.5,130.4 682.5,130.4 651.5,130.4 620.5,130.4 620.5,97.8 589.5,97.8 558.4,97.8 527.4,97.8 496.4,97.8 
		496.4,130.4 496.4,163.1 496.4,195.7 496.4,228.3 465.4,228.3 434.3,228.3 434.3,260.9 403.3,260.9 372.3,260.9 341.2,260.9 
		310.2,260.9 310.2,293.5 341.2,293.5 341.2,326.1 372.3,326.1 372.3,358.7 372.3,358.7 403.3,358.7 403.3,391.3 403.3,424 
		403.3,456.6 403.3,489.2 403.3,521.8 372.3,521.8 372.3,554.4 341.2,554.4 310.2,554.4 279.2,554.4 279.2,587 279.2,619.7 
		310.2,619.7 341.2,619.7 372.3,619.7 403.3,619.7 434.3,619.7 434.3,652.3 465.4,652.3 496.4,652.3 496.4,684.9 496.4,717.5 
		496.4,750.1 496.4,782.7 496.4,815.3 465.4,815.3 434.3,815.3 434.3,847.9 403.3,847.9 403.3,880.6 434.3,880.6 465.4,880.6 
		496.4,880.6 527.4,880.6 558.4,880.6 558.4,913.2 589.5,913.2 620.5,913.2 651.5,913.2 682.5,913.2 713.5,913.2 744.6,913.2 
		775.6,913.2 806.6,913.2 837.6,913.2 868.7,913.2 899.7,913.2 930.7,913.2 930.7,945.8 961.7,945.8 992.8,945.8 1023.8,945.8 
		1054.8,945.8 1085.8,945.8 1116.8,945.8 1147.9,945.8 1178.9,945.8 1209.9,945.8 1240.9,945.8 1272,945.8 1303,945.8 1334,945.8 
		1334,913.2 1334,880.6 1334,847.9 1334,815.3 1334,782.7 1334,750.1 1334,717.5 1334,684.9 1334,652.3 1334,619.7 1334,587 
		1334,554.4 1334,521.8 1334,489.2 1334,456.6 1334,424 1334,391.3 1334,358.7 1334,358.7 1334,326.1 1334,293.5 1303,293.5 	"/>
	<polygon class="st1" points="279.2,260.9 279.2,228.3 310.2,228.3 341.2,228.3 372.3,228.3 403.3,228.3 403.3,195.7 434.3,195.7 
		465.4,195.7 465.4,163.1 465.4,130.4 465.4,97.8 434.3,97.8 403.3,97.8 372.3,97.8 372.3,65.2 341.2,65.2 310.2,65.2 279.2,65.2 
		248.2,65.2 217.2,65.2 217.2,97.8 248.2,97.8 279.2,97.8 310.2,97.8 341.2,97.8 341.2,130.4 372.3,130.4 403.3,130.4 434.3,130.4 
		434.3,163.1 403.3,163.1 372.3,163.1 372.3,195.7 341.2,195.7 310.2,195.7 279.2,195.7 248.2,195.7 248.2,228.3 217.2,228.3 
		217.2,260.9 248.2,260.9 	"/>
	<polygon class="st1" points="248.2,521.8 279.2,521.8 310.2,521.8 341.2,521.8 341.2,489.2 372.3,489.2 372.3,456.6 372.3,424 
		372.3,391.3 341.2,391.3 341.2,358.7 341.2,358.7 310.2,358.7 310.2,326.1 279.2,326.1 248.2,326.1 217.2,326.1 217.2,358.7 
		248.2,358.7 279.2,358.7 279.2,391.3 310.2,391.3 310.2,424 341.2,424 341.2,456.6 310.2,456.6 310.2,489.2 279.2,489.2 
		248.2,489.2 217.2,489.2 217.2,521.8 217.2,554.4 248.2,554.4 	"/>
	<polygon class="st1" points="186.2,847.9 186.2,880.6 217.2,880.6 217.2,847.9 217.2,815.3 186.2,815.3 	"/>
	<polygon class="st1" points="155.1,521.8 124.1,521.8 93.1,521.8 93.1,554.4 62,554.4 31,554.4 0,554.4 0,587 0,619.7 31,619.7 
		62,619.7 62,652.3 93.1,652.3 124.1,652.3 155.1,652.3 186.2,652.3 217.2,652.3 217.2,619.7 186.2,619.7 155.1,619.7 124.1,619.7 
		93.1,619.7 93.1,587 124.1,587 124.1,554.4 155.1,554.4 186.2,554.4 217.2,554.4 217.2,521.8 186.2,521.8 	"/>
	<polygon class="st1" points="155.1,228.3 124.1,228.3 93.1,228.3 62,228.3 62,260.9 31,260.9 31,293.5 31,326.1 62,326.1 
		93.1,326.1 124.1,326.1 155.1,326.1 186.2,326.1 186.2,358.7 217.2,358.7 217.2,326.1 217.2,293.5 186.2,293.5 155.1,293.5 
		124.1,293.5 93.1,293.5 93.1,260.9 124.1,260.9 155.1,260.9 186.2,260.9 217.2,260.9 217.2,228.3 186.2,228.3 	"/>
	<polygon class="st1" points="155.1,0 155.1,32.6 155.1,65.2 186.2,65.2 186.2,97.8 217.2,97.8 217.2,65.2 217.2,32.6 217.2,0 
		186.2,0 	"/>
</g>
</svg>
