<?xml version="1.0" encoding="utf-8"?>
<!-- Generator: Adobe Illustrator 25.3.1, SVG Export Plug-In . SVG Version: 6.00 Build 0)  -->
<svg version="1.1" id="Layer_1" xmlns="http://www.w3.org/2000/svg" xmlns:xlink="http://www.w3.org/1999/xlink" x="0px" y="0px"
	 viewBox="0 0 566 1191" style="enable-background:new 0 0 566 1191;" xml:space="preserve">
<style type="text/css">
	.st0{fill:#6E6D71;}
</style>
<path class="st0" d="M266.1,1101.7h-33.2v29.8h33.2V1101.7z"/>
<path class="st0" d="M299.4,1071.9h-33.3v29.8h33.3V1071.9z"/>
<path class="st0" d="M332.6,1042.1h-33.2v29.8h33.2V1042.1z"/>
<path class="st0" d="M365.9,1012.3h-33.3v29.8h33.3V1012.3z"/>
<path class="st0" d="M399.2,982.6H366v29.8h33.2V982.6z"/>
<path class="st0" d="M465.7,923h-33.2v29.8h33.2V923z"/>
<polygon class="st0" points="565.5,833.7 565.5,952.8 532.3,952.8 532.3,923 465.7,923 465.7,863.5 432.5,863.5 432.5,833.7 "/>
<path class="st0" d="M432.5,952.8h-33.3v29.8h33.3V952.8z"/>
<path class="st0" d="M232.9,1131.5h-33.3v29.8h33.3V1131.5z"/>
<path class="st0" d="M199.6,1161.2h-33.3v29.8h33.3V1161.2z"/>
</svg>
