<?xml version="1.0" encoding="utf-8"?>
<!-- Generator: Adobe Illustrator 25.3.1, SVG Export Plug-In . SVG Version: 6.00 Build 0)  -->
<svg version="1.1" id="Layer_1" xmlns="http://www.w3.org/2000/svg" xmlns:xlink="http://www.w3.org/1999/xlink" x="0px" y="0px"
	 viewBox="0 0 566 1191" style="enable-background:new 0 0 566 1191;" xml:space="preserve">
<style type="text/css">
	.st0{fill:#6E6D71;}
</style>
<path class="st0" d="M299.4,1101.7h33.2v29.8h-33.2V1101.7z"/>
<path class="st0" d="M266.1,1071.9h33.3v29.8h-33.3V1071.9z"/>
<path class="st0" d="M232.9,1042.1h33.2v29.8h-33.2V1042.1z"/>
<path class="st0" d="M199.6,1012.3h33.3v29.8h-33.3V1012.3z"/>
<path class="st0" d="M166.3,982.6h33.2v29.8h-33.2V982.6z"/>
<path class="st0" d="M99.8,923h33.2v29.8H99.8V923z"/>
<polygon class="st0" points="133.1,833.7 133.1,863.5 99.8,863.5 99.8,923 33.2,923 33.2,952.8 0,952.8 0,833.7 "/>
<path class="st0" d="M332.6,29.8h33.3v29.8h-33.3V29.8z"/>
<path class="st0" d="M199.6,148.9h33.3v29.8h-33.3V148.9z"/>
<path class="st0" d="M166.3,178.7h33.2v29.8h-33.2V178.7z"/>
<path class="st0" d="M133.1,208.4h33.3v29.8h-33.3V208.4z"/>
<path class="st0" d="M99.8,238.2h33.2V268H99.8V238.2z"/>
<polygon class="st0" points="133.1,327.5 133.1,357.3 0,357.3 0,238.2 33.2,238.2 33.2,268 99.8,268 99.8,327.5 "/>
<path class="st0" d="M133.1,952.8h33.3v29.8h-33.3V952.8z"/>
<path class="st0" d="M232.9,119.1h33.2v29.8h-33.2V119.1z"/>
<path class="st0" d="M266.1,89.3h33.3v29.8h-33.3V89.3z"/>
<path class="st0" d="M299.4,59.5h33.2v29.8h-33.2V59.5z"/>
<path class="st0" d="M332.6,1131.5h33.3v29.8h-33.3V1131.5z"/>
<path class="st0" d="M365.9,1161.2h33.3v29.8h-33.3V1161.2z"/>
<path class="st0" d="M365.9,0h33.3v29.8h-33.3V0z"/>
<polygon class="st0" points="565.5,595.5 565.5,625.3 232.9,625.3 232.9,684.8 199.6,684.8 199.6,655 133.1,655 133.1,625.3 
	99.8,625.3 99.8,595.5 133.1,595.5 133.1,565.7 199.6,565.7 199.6,535.9 232.9,535.9 232.9,595.5 "/>
</svg>
