<?xml version="1.0" encoding="utf-8"?>
<!-- Generator: Adobe Illustrator 25.3.1, SVG Export Plug-In . SVG Version: 6.00 Build 0)  -->
<svg version="1.1" id="Layer_1" xmlns="http://www.w3.org/2000/svg" xmlns:xlink="http://www.w3.org/1999/xlink" x="0px" y="0px"
	 viewBox="0 0 399 696" style="enable-background:new 0 0 399 696;" xml:space="preserve">
<style type="text/css">
	.st0{fill:#EFEFEF;}
	.st1{fill:#993626;}
	.st2{fill:#6E6D71;}
</style>
<path class="st0" d="M239.4,163.1h-26.6v28h26.6V163.1z"/>
<path class="st0" d="M186.2,163.1h-26.6v28h26.6V163.1z"/>
<path class="st1" d="M372.4,331.4v-27.1h-26.6v-28h-26.6v-28H266V108H133v140.2H79.8v28H53.2v28H26.6v27.1H0v28h26.6v28h26.6v28
	h26.6v28.1h26.6v28H133V696h53.2V471.6h26.6V696H266V471.6h26.6v-28h26.6v-28.1h26.6v-28h26.6v-28H399v-28H372.4z M212.8,164.1h26.6
	v28h-26.6V164.1z M159.6,164.1h26.6v28h-26.6V164.1z M106.4,387.5H79.8v-28H53.2v-27h26.6v-28h26.6v27.1v1V387.5z M319.2,359.4v28
	h-26.6v-55.1v-1v-27.1h26.6v28h26.6v27H319.2z"/>
<path class="st2" d="M146.6,56H120v28h26.6V56z"/>
<path class="st2" d="M173.6,28H147v28h26.6V28z"/>
<path class="st2" d="M146.6,0H120v28h26.6V0z"/>
<path class="st2" d="M210.6,56H184v28h26.6V56z"/>
<path class="st2" d="M237.6,28H211v28h26.6V28z"/>
<path class="st2" d="M210.6,0H184v28h26.6V0z"/>
<path class="st2" d="M274.6,56H248v28h26.6V56z"/>
<path class="st2" d="M301.6,28H275v28h26.6V28z"/>
<path class="st2" d="M274.6,0H248v28h26.6V0z"/>
</svg>
