<?xml version="1.0" encoding="utf-8"?>
<!-- Generator: Adobe Illustrator 25.3.1, SVG Export Plug-In . SVG Version: 6.00 Build 0)  -->
<svg version="1.1" id="Layer_1" xmlns="http://www.w3.org/2000/svg" xmlns:xlink="http://www.w3.org/1999/xlink" x="0px" y="0px"
	 viewBox="0 0 463 649" style="enable-background:new 0 0 463 649;" xml:space="preserve">
<style type="text/css">
	.st0{fill:#6E6D71;}
	.st1{fill:#993626;}
	.st2{fill:#FBF0AC;}
	.st3{fill:#EFEFEF;}
</style>
<rect x="123.5" y="454.3" class="st0" width="123.5" height="32.5"/>
<path class="st0" d="M123.5,486.8H92.6v32.4h30.9V486.8z"/>
<rect x="61.7" y="421.8" class="st0" width="30.9" height="64.9"/>
<rect x="92.6" y="389.4" class="st0" width="30.9" height="32.5"/>
<rect x="30.9" y="356.9" class="st0" width="61.7" height="32.5"/>
<path class="st0" d="M463,194.7h-30.9v32.5H463V194.7z"/>
<path class="st0" d="M432.1,324.5h-30.9v32.5h30.9V324.5z"/>
<path class="st0" d="M432.1,227.2h-30.9v32.5h30.9V227.2z"/>
<rect x="401.3" y="194.7" class="st1" width="30.9" height="32.5"/>
<rect x="370.4" y="162.2" class="st0" width="61.7" height="32.5"/>
<rect x="370.4" y="97.3" class="st1" width="61.7" height="64.9"/>
<rect x="370.4" y="259.6" class="st0" width="30.9" height="64.9"/>
<rect x="339.5" y="194.7" class="st2" width="61.7" height="32.5"/>
<rect x="308.7" y="129.8" class="st0" width="61.7" height="32.4"/>
<rect x="308.7" y="389.4" class="st1" width="30.8" height="32.5"/>
<rect x="308.7" y="356.9" class="st0" width="92.6" height="32.5"/>
<rect x="277.8" y="389.4" class="st0" width="30.9" height="32.5"/>
<rect x="185.2" y="162.2" class="st0" width="123.5" height="32.5"/>
<polygon class="st1" points="308.7,421.8 308.7,649 246.9,649 246.9,454.3 277.8,454.3 277.8,421.8 "/>
<rect x="246.9" y="421.8" class="st0" width="30.9" height="32.4"/>
<polygon class="st1" points="370.4,162.2 370.4,194.7 339.5,194.7 339.5,356.9 246.9,356.9 246.9,292 308.7,292 308.7,259.6 
	246.9,259.6 246.9,227.1 308.7,227.1 308.7,162.2 "/>
<rect x="246.9" y="64.9" class="st3" width="30.9" height="32.4"/>
<polygon class="st1" points="154.3,259.6 154.3,292 216.1,292 216.1,356.9 154.3,356.9 154.3,421.8 123.5,421.8 123.5,227.1 
	216.1,227.1 216.1,259.6 "/>
<rect x="185.2" y="64.9" class="st3" width="30.9" height="32.4"/>
<rect x="154.3" y="486.8" class="st1" width="61.7" height="162.2"/>
<rect x="154.3" y="421.8" class="st1" width="30.8" height="32.4"/>
<polygon class="st2" points="246.9,227.1 246.9,259.6 308.7,259.6 308.7,292 246.9,292 246.9,356.9 308.7,356.9 308.7,389.4 
	277.8,389.4 277.8,421.8 216.1,421.8 216.1,454.3 185.2,454.3 185.2,421.8 154.3,421.8 154.3,356.9 216.1,356.9 216.1,292 
	154.3,292 154.3,259.6 216.1,259.6 216.1,227.1 185.2,227.1 185.2,194.7 308.7,194.7 308.7,227.1 "/>
<rect x="123.5" y="194.7" class="st0" width="61.7" height="32.5"/>
<rect x="92.6" y="227.1" class="st0" width="30.9" height="32.5"/>
<path class="st0" d="M92.6,259.6H61.7V292h30.9V259.6z"/>
<polygon class="st0" points="61.7,292 61.7,324.5 30.9,324.5 30.9,356.9 0,356.9 0,292 "/>
<path class="st1" d="M154.3,0v162.2H92.6V97.3H30.9v129.8h92.6v-32.5h61.7v-32.5h123.5V0H154.3z M216.1,97.3h-30.9V64.9h30.9V97.3z
	 M277.8,97.3h-30.9V64.9h30.9V97.3z"/>
</svg>
