<svg width="1180" height="395" viewBox="0 0 1180 395" fill="none" xmlns="http://www.w3.org/2000/svg">
<path d="M47.2158 277.873L10.2347 330.874L72.0697 374.019L79.281 363.684L27.7813 327.75L57.5511 285.084L47.2158 277.873Z" fill="#FBF0AC"/>
<path d="M58.2616 263.476L114.13 314.27L122.608 304.945L103.958 287.989L146.202 241.526L108.983 207.687L58.2616 263.476ZM76.064 262.629L109.902 225.41L128.472 242.293L94.6336 279.512L76.064 262.629Z" fill="#FBF0AC"/>
<path d="M188.516 156.042L180.441 146.367L122.554 194.68L170.867 252.567L228.754 204.254L220.678 194.579L172.467 234.816L156.386 215.548L204.184 175.656L196.109 165.98L148.311 205.873L140.304 196.28L188.516 156.042Z" fill="#FBF0AC"/>
<path d="M273.586 122.646L267.448 91.064L256.413 97.7935L260.927 124.436L232.51 141.765L210.707 125.665L199.671 132.394L225.122 152.2L235.156 199.068L246.192 192.338L238.519 152.861L268.499 134.579L299.623 159.756L310.658 153.027L273.586 122.646Z" fill="#FBF0AC"/>
<path d="M346.868 55.719L322.678 127.443L300.63 75.2517L289.021 80.1559L318.362 149.612L329.971 144.708L354.371 73.4799L376.209 125.175L387.818 120.271L358.477 50.8149L346.868 55.719Z" fill="#FBF0AC"/>
<path d="M499.887 17.0358L459.924 81.3197L450.406 25.4677L437.983 27.5848L450.649 101.912L463.072 99.7954L503.126 36.0424L512.553 91.3634L524.976 89.2464L512.31 14.9188L499.887 17.0358Z" fill="#FBF0AC"/>
<path d="M606.771 23.2763L606.376 10.6801L531.014 13.0425L533.377 88.4047L608.739 86.0422L608.344 73.4459L545.578 75.4135L544.005 25.2439L606.771 23.2763Z" fill="#FBF0AC"/>
<path d="M683.909 47.8734L696.212 18.967L683.36 17.5909L673.405 41.7657L635.063 37.6606L637.735 12.706L625.204 11.3644L617.177 86.3351L629.708 87.6767L633.721 50.1914L672.277 54.3195L679.938 93.0547L692.79 94.4307L683.909 47.8734Z" fill="#FBF0AC"/>
<path d="M755.36 109.483L792.89 41.1507L780.142 37.9606L761.691 72.2053L733.165 65.0668L731.972 25.9063L719.224 22.7162L720.91 74.9912L755.183 83.5679L748.806 94.8521L720.907 87.8705L721.087 100.907L755.36 109.483Z" fill="#FBF0AC"/>
<path d="M811.14 47.081L782.948 117.011L794.637 121.723L818.116 63.4814L864.67 82.2488L841.19 140.491L852.879 145.203L881.07 75.2725L811.14 47.081Z" fill="#FBF0AC"/>
<path d="M961.939 120.11L919.023 95.5637L874.661 142.533L865.311 137.185L859.054 148.125L877.754 158.82L921.087 111.263L944.742 124.793L913.564 179.303L924.504 185.56L961.939 120.11Z" fill="#FBF0AC"/>
<path d="M1029.84 186.555L1037.53 176.568L977.774 130.583L931.789 190.337L991.543 236.321L999.229 226.334L949.463 188.036L964.769 168.146L1014.11 206.116L1021.79 196.129L972.455 158.159L980.075 148.257L1029.84 186.555Z" fill="#FBF0AC"/>
<path d="M1095.65 233.784L1077.76 251.389L1042.56 215.615L1060.44 198.01L1051.6 189.028L997.865 241.918L1006.7 250.899L1033.57 224.455L1068.78 260.229L1041.91 286.673L1050.75 295.655L1104.49 242.766L1095.65 233.784Z" fill="#FBF0AC"/>
<path d="M1104.68 282.367L1124.98 267.602L1117.56 257.411L1056.59 301.771L1093.86 352.985L1134.53 323.391L1104.68 282.367ZM1101.08 362.915L1108.49 373.105L1169.46 328.745L1162.05 318.555L1101.08 362.915ZM1096.63 335.38L1074.2 304.548L1094.49 289.782L1116.93 320.615L1096.63 335.38Z" fill="#FBF0AC"/>
</svg>
