<?xml version="1.0" encoding="utf-8"?>
<!-- Generator: Adobe Illustrator 25.3.1, SVG Export Plug-In . SVG Version: 6.00 Build 0)  -->
<svg version="1.1" id="Layer_1" xmlns="http://www.w3.org/2000/svg" xmlns:xlink="http://www.w3.org/1999/xlink" x="0px" y="0px"
	 viewBox="0 0 263 555" style="enable-background:new 0 0 263 555;" xml:space="preserve">
<style type="text/css">
	.st0{fill:#FBF0AC;}
</style>
<g>
	<polygon class="st0" points="0,215.8 0,246.7 29.2,246.7 29.2,215.8 29.2,185 0,185 	"/>
	<polygon class="st0" points="233.8,308.3 233.8,339.2 263,339.2 263,308.3 263,277.5 233.8,277.5 	"/>
	<polygon class="st0" points="233.8,185 233.8,215.8 233.8,246.7 263,246.7 263,215.8 263,185 	"/>
	<polygon class="st0" points="146.1,524.2 146.1,555 175.3,555 175.3,524.2 175.3,493.3 146.1,493.3 	"/>
	<polygon class="st0" points="87.6,524.2 87.6,555 116.9,555 116.9,524.2 116.9,493.3 87.6,493.3 	"/>
	<polygon class="st0" points="146.1,215.8 146.1,246.7 204.6,246.7 204.6,277.5 146.1,277.5 146.1,339.2 204.6,339.2 204.6,400.8 
		175.3,400.8 175.3,462.5 146.1,462.5 146.1,400.8 116.9,400.8 116.9,462.5 87.7,462.5 87.7,400.8 58.4,400.8 58.4,339.2 
		116.9,339.2 116.9,277.5 58.4,277.5 58.4,246.7 116.9,246.7 116.9,215.8 58.4,215.8 58.4,185 116.9,185 116.9,154.2 146.1,154.2 
		146.1,185 204.6,185 204.6,215.8 	"/>
	<polygon class="st0" points="175.3,0 175.3,123.3 87.7,123.3 87.7,154.2 29.2,154.2 29.2,0 	"/>
	<polygon class="st0" points="0,308.3 0,339.2 29.2,339.2 29.2,308.3 29.2,277.5 0,277.5 	"/>
</g>
</svg>
