<svg width="472" height="349" viewBox="0 0 472 349" fill="none" xmlns="http://www.w3.org/2000/svg">
<path d="M89.6753 204.461L0.501805 260.141L55.5524 348.307L143.718 293.256L106.992 234.437L99.5605 239.077L89.6753 204.461ZM33.5621 280.286L24.4394 265.676L79.3542 231.387L84.3204 248.593L33.5621 280.286ZM119.781 287.721L61.0874 324.369L42.7634 295.023L101.457 258.375L119.781 287.721ZM150.625 288.944L165.991 279.349L151.942 226.852L174.362 212.853L201.887 256.936L216.623 247.735L189.098 203.652L211.517 189.653L252.519 225.321L267.885 215.727L219.127 173.523L207.671 130.785L192.935 139.986L201.686 175.31L179.897 188.915L161.573 159.569L146.836 168.77L165.16 198.117L143.371 211.722L115.475 188.352L100.738 197.554L134.11 226.608L150.625 288.944ZM339.245 171.17L307.369 68.5337L292.003 78.1283L308.319 129.21L273.934 150.68L233.94 114.383L218.574 123.978L272.052 172.337L313.364 146.542L318.456 163.669L284.827 184.667L297.933 196.965L339.245 171.17ZM420.071 47.1785L411.15 3.73323L396.036 13.1705L402.646 49.831L363.727 74.1319L333.438 52.2564L318.324 61.6936L353.695 88.6237L368.211 153.084L383.325 143.647L372.173 89.34L413.233 63.7022L456.502 97.9547L471.617 88.5174L420.071 47.1785Z" fill="#FBF0AC"/>
</svg>
