<svg width="192" height="145" viewBox="0 0 192 145" fill="none" xmlns="http://www.w3.org/2000/svg">
<path d="M45.9942 27.9199L0.613071 100.418L14.3811 104.158L29.197 79.9477L73.6609 92.0246L66.519 118.319L79.7227 121.906L101.179 42.9087L45.9942 27.9199ZM37.0717 67.9087L51.8876 43.6984L84.3891 52.5262L77.2472 78.8208L37.0717 67.9087ZM121.835 40.0367L174.763 54.4125L178.257 41.5473L125.33 27.1715L121.835 40.0367ZM172.617 62.3122L103.905 107.389L120.028 48.0283L106.824 44.442L85.368 123.439L98.5717 127.025L167.131 82.5128L151.161 141.309L164.365 144.895L185.821 65.8984L172.617 62.3122Z" fill="#FBF0AC"/>
</svg>
